<?xml version="1.0" encoding="UTF-8" standalone="no"?>
<svg
   xmlns:dc="http://purl.org/dc/elements/1.1/"
   xmlns:cc="http://creativecommons.org/ns#"
   xmlns:rdf="http://www.w3.org/1999/02/22-rdf-syntax-ns#"
   xmlns:svg="http://www.w3.org/2000/svg"
   xmlns="http://www.w3.org/2000/svg"
   xmlns:sodipodi="http://sodipodi.sourceforge.net/DTD/sodipodi-0.dtd"
   xmlns:inkscape="http://www.inkscape.org/namespaces/inkscape"
   id="svg1219"
   version="1.1"
   viewBox="0 0 11.493146 11.209467"
   height="11.209467mm"
   width="11.493146mm"
   sodipodi:docname="github.svg"
   inkscape:version="0.92.2 5c3e80d, 2017-08-06"
   inkscape:export-filename="/home/asmcoder/cpp-tour/src/img/icons/github.png"
   inkscape:export-xdpi="1832.79"
   inkscape:export-ydpi="1832.79">
  <sodipodi:namedview
     pagecolor="#ffffff"
     bordercolor="#666666"
     borderopacity="1"
     objecttolerance="10"
     gridtolerance="10"
     guidetolerance="10"
     inkscape:pageopacity="0"
     inkscape:pageshadow="2"
     inkscape:window-width="1360"
     inkscape:window-height="740"
     id="namedview188"
     showgrid="false"
     inkscape:pagecheckerboard="true"
     inkscape:zoom="7.8777923"
     inkscape:cx="6.5553181"
     inkscape:cy="15.542404"
     inkscape:window-x="0"
     inkscape:window-y="0"
     inkscape:window-maximized="1"
     inkscape:current-layer="g3150" />
  <defs
     id="defs1213">
    <clipPath
       id="clipPath20-3"
       clipPathUnits="userSpaceOnUse">
      <path
         id="path18-6"
         d="M 0,551.986 H 530.973 V 0 H 0 Z"
         inkscape:connector-curvature="0" />
    </clipPath>
  </defs>
  <metadata
     id="metadata1216">
    <rdf:RDF>
      <cc:Work
         rdf:about="">
        <dc:format>image/svg+xml</dc:format>
        <dc:type
           rdf:resource="http://purl.org/dc/dcmitype/StillImage" />
        <dc:title />
      </cc:Work>
    </rdf:RDF>
  </metadata>
  <g
     id="g10"
     transform="matrix(0.35277777,0,0,-0.35277777,-10.161921,84.85077)">
    <g
       id="g3150">
      <path
         inkscape:connector-curvature="0"
         id="path198-3"
         style="fill:#ffffff;fill-opacity:1;fill-rule:evenodd;stroke:none;stroke-width:0.61085045"
         d="m 45.094042,234.45944 c -5.427399,0 -9.827847,-4.51009 -9.827847,-10.07395 0,-4.45072 2.815968,-8.22614 6.721651,-9.55882 0.491751,-0.0922 0.670958,0.21892 0.670958,0.48608 0,0.23871 -0.0087,0.87258 -0.01329,1.713 -2.733912,-0.60851 -3.310743,1.35062 -3.310743,1.35062 -0.447105,1.16385 -1.091509,1.47368 -1.091509,1.47368 -0.892398,0.6246 0.06755,0.61222 0.06755,0.61222 0.986527,-0.0711 1.505432,-1.03831 1.505432,-1.03831 0.876711,-1.53923 2.300685,-1.09459 2.860623,-0.83671 0.0893,0.65057 0.342718,1.09459 0.623895,1.34628 -2.182424,0.25417 -4.477071,1.11871 -4.477071,4.97885 0,1.09954 0.383139,1.99871 1.01186,2.70308 -0.101367,0.25479 -0.438656,1.27888 0.09592,2.66598 0,0 0.825425,0.27087 2.703141,-1.03275 0.783794,0.22387 1.624905,0.33519 2.460585,0.3389 0.834475,-0.004 1.675587,-0.11503 2.460586,-0.3389 1.876515,1.30362 2.700123,1.03275 2.700123,1.03275 0.536407,-1.3871 0.199122,-2.41119 0.09776,-2.66598 0.629931,-0.70437 1.010664,-1.60354 1.010664,-2.70308 0,-3.87003 -2.298275,-4.72159 -4.487941,-4.97081 0.35298,-0.31106 0.667337,-0.92576 0.667337,-1.86575 0,-1.34629 -0.01204,-2.43284 -0.01204,-2.76307 0,-0.26963 0.176793,-0.58316 0.675785,-0.48484 3.902664,1.33515 6.716223,5.1081 6.716223,9.55758 -10e-7,5.56386 -4.40105,10.07395 -9.829659,10.07395" />
    </g>
  </g>
</svg>
