<?xml version="1.0" encoding="UTF-8" standalone="no"?>
<svg
   xmlns:dc="http://purl.org/dc/elements/1.1/"
   xmlns:cc="http://creativecommons.org/ns#"
   xmlns:rdf="http://www.w3.org/1999/02/22-rdf-syntax-ns#"
   xmlns:svg="http://www.w3.org/2000/svg"
   xmlns="http://www.w3.org/2000/svg"
   xml:space="preserve"
   style="enable-background:new 0 0 270 270;"
   viewBox="0 0 270 270"
   y="0px"
   x="0px"
   id="Layer_1"
   version="1.1"><metadata
     id="metadata23"><rdf:RDF><cc:Work
         rdf:about=""><dc:format>image/svg+xml</dc:format><dc:type
           rdf:resource="http://purl.org/dc/dcmitype/StillImage" /><dc:title></dc:title></cc:Work></rdf:RDF></metadata><defs
     id="defs21" /><style
     id="style2"
     type="text/css">
	.st0{fill:#FFFFFF;}
</style><g
     id="Layer_1_1_" /><g
     id="Layer_3" /><g
     id="Layer_4" /><g
     transform="matrix(1.3201179,0,0,1.3201179,-43.952185,-43.439995)"
     id="Layer_2"><g
       id="g15"><rect
         style="fill:#ffffff"
         id="rect7"
         height="17"
         width="17.6"
         class="st0"
         transform="matrix(0.9482,-0.3176,0.3176,0.9482,-36.0197,50.6366)"
         y="127.3"
         x="128.5" /><g
         id="g13"><rect
           style="fill:#ffffff;stroke-width:0.99997652"
           id="rect9"
           height="16.999601"
           width="17.599586"
           class="st0"
           transform="rotate(-18.518296)"
           y="162.72531"
           x="76.808144" /><path
           style="fill:#ffffff"
           id="path11"
           d="m 192.85773,117.96974 c -12.9,-42.999998 -31.5,-52.999998 -74.5,-40.099998 -43.000002,12.9 -53.000002,31.499998 -40.100002,74.499998 12.9,43 31.500002,53 74.500002,40.1 43,-12.9 53,-31.5 40.1,-74.5 z m -21.7,27.9 -8.1,2.7 2.8,8.4 c 1.1,3.4 -0.7,7.1 -4.1,8.2 -0.7,0.2 -1.5,0.4 -2.2,0.3 -2.6,-0.1 -5.1,-1.8 -6,-4.4 l -2.8,-8.4 -16.7,5.6 2.8,8.4 c 1.1,3.4 -0.7,7.1 -4.1,8.2 -0.7,0.2 -1.5,0.4 -2.2,0.3 -2.6,-0.1 -5.1,-1.8 -6,-4.4 l -2.8,-8.4 -8.1,2.7 c -0.7,0.2 -1.5,0.4 -2.2,0.3 -2.6,-0.1 -5.1,-1.8 -6,-4.4 -1.1,-3.4 0.7,-7.1 4.1,-8.2 l 8.1,-2.7 -5.4,-16.1 -8.1,2.7 c -0.7,0.2 -1.5,0.4 -2.2,0.3 -2.600002,-0.1 -5.100002,-1.8 -6.000002,-4.4 -1.1,-3.4 0.7,-7.1 4.100002,-8.2 l 8.1,-2.7 -2.8,-8.4 c -1.1,-3.4 0.7,-7.1 4.1,-8.2 3.4,-1.1 7.1,0.7 8.2,4.1 l 2.8,8.4 16.7,-5.6 -2.8,-8.4 c -1.1,-3.4 0.7,-7.099998 4.1,-8.199998 3.4,-1.1 7.1,0.7 8.2,4.1 l 2.8,8.399998 8.1,-2.7 c 3.4,-1.1 7.1,0.7 8.2,4.1 1.1,3.4 -0.7,7.1 -4.1,8.2 l -8.1,2.7 5.4,16.1 8.1,-2.7 c 3.4,-1.1 7.1,0.7 8.2,4.1 1.1,3.4 -0.7,7.1 -4.1,8.2 z"
           class="st0" /></g></g></g></svg>